solid vcg
  facet normal 0.000000e+000 1.000000e+000 0.000000e+000
    outer loop
      vertex  7.071068e-001 7.071068e-001 7.071068e-001
      vertex  7.071068e-001 7.071068e-001 -7.071068e-001
      vertex  -7.071068e-001 7.071068e-001 7.071068e-001
    endloop
  endfacet
  facet normal 1.000000e+000 0.000000e+000 0.000000e+000
    outer loop
      vertex  7.071068e-001 7.071068e-001 7.071068e-001
      vertex  7.071068e-001 -7.071068e-001 7.071068e-001
      vertex  7.071068e-001 7.071068e-001 -7.071068e-001
    endloop
  endfacet
  facet normal 0.000000e+000 0.000000e+000 1.000000e+000
    outer loop
      vertex  7.071068e-001 7.071068e-001 7.071068e-001
      vertex  -7.071068e-001 7.071068e-001 7.071068e-001
      vertex  -7.071068e-001 -7.071068e-001 7.071068e-001
    endloop
  endfacet
  facet normal 0.000000e+000 0.000000e+000 1.000000e+000
    outer loop
      vertex  7.071068e-001 7.071068e-001 7.071068e-001
      vertex  -7.071068e-001 -7.071068e-001 7.071068e-001
      vertex  7.071068e-001 -7.071068e-001 7.071068e-001
    endloop
  endfacet
  facet normal 1.000000e+000 0.000000e+000 0.000000e+000
    outer loop
      vertex  7.071068e-001 7.071068e-001 -7.071068e-001
      vertex  7.071068e-001 -7.071068e-001 7.071068e-001
      vertex  7.071068e-001 -7.071068e-001 -7.071068e-001
    endloop
  endfacet
  facet normal 0.000000e+000 -0.000000e+000 -1.000000e+000
    outer loop
      vertex  7.071068e-001 7.071068e-001 -7.071068e-001
      vertex  7.071068e-001 -7.071068e-001 -7.071068e-001
      vertex  -7.071068e-001 -7.071068e-001 -7.071068e-001
    endloop
  endfacet
  facet normal 0.000000e+000 1.000000e+000 0.000000e+000
    outer loop
      vertex  7.071068e-001 7.071068e-001 -7.071068e-001
      vertex  -7.071068e-001 7.071068e-001 -7.071068e-001
      vertex  -7.071068e-001 7.071068e-001 7.071068e-001
    endloop
  endfacet
  facet normal -0.000000e+000 0.000000e+000 -1.000000e+000
    outer loop
      vertex  7.071068e-001 7.071068e-001 -7.071068e-001
      vertex  -7.071068e-001 -7.071068e-001 -7.071068e-001
      vertex  -7.071068e-001 7.071068e-001 -7.071068e-001
    endloop
  endfacet
  facet normal -0.000000e+000 -1.000000e+000 0.000000e+000
    outer loop
      vertex  7.071068e-001 -7.071068e-001 7.071068e-001
      vertex  -7.071068e-001 -7.071068e-001 7.071068e-001
      vertex  -7.071068e-001 -7.071068e-001 -7.071068e-001
    endloop
  endfacet
  facet normal 0.000000e+000 -1.000000e+000 -0.000000e+000
    outer loop
      vertex  7.071068e-001 -7.071068e-001 7.071068e-001
      vertex  -7.071068e-001 -7.071068e-001 -7.071068e-001
      vertex  7.071068e-001 -7.071068e-001 -7.071068e-001
    endloop
  endfacet
  facet normal -1.000000e+000 -0.000000e+000 -0.000000e+000
    outer loop
      vertex  -7.071068e-001 7.071068e-001 7.071068e-001
      vertex  -7.071068e-001 7.071068e-001 -7.071068e-001
      vertex  -7.071068e-001 -7.071068e-001 7.071068e-001
    endloop
  endfacet
  facet normal -1.000000e+000 0.000000e+000 0.000000e+000
    outer loop
      vertex  -7.071068e-001 7.071068e-001 -7.071068e-001
      vertex  -7.071068e-001 -7.071068e-001 -7.071068e-001
      vertex  -7.071068e-001 -7.071068e-001 7.071068e-001
    endloop
  endfacet
endsolid vcg
